<mxfile host="Electron" modified="2023-08-08T10:21:55.660Z" agent="Mozilla/5.0 (Macintosh; Intel Mac OS X 10_15_7) AppleWebKit/537.36 (KHTML, like Gecko) draw.io/21.6.5 Chrome/114.0.5735.243 Electron/25.3.1 Safari/537.36" etag="KYr56qAJetUkZGdSeAoT" version="21.6.5" type="device">
  <diagram name="Страница 1" id="Rvhk5PthQ6XHbSeJRO9w">
    <mxGraphModel dx="1114" dy="2023" grid="1" gridSize="10" guides="1" tooltips="1" connect="1" arrows="1" fold="1" page="1" pageScale="1" pageWidth="827" pageHeight="1169" math="0" shadow="0">
      <root>
        <mxCell id="0" />
        <mxCell id="1" parent="0" />
        <mxCell id="SbqMLIWRrSxhHvVzDSS_-4" value="" style="edgeStyle=orthogonalEdgeStyle;rounded=0;orthogonalLoop=1;jettySize=auto;html=1;" edge="1" parent="1" source="SbqMLIWRrSxhHvVzDSS_-1" target="SbqMLIWRrSxhHvVzDSS_-2">
          <mxGeometry relative="1" as="geometry" />
        </mxCell>
        <mxCell id="SbqMLIWRrSxhHvVzDSS_-1" value="Пациент" style="ellipse;whiteSpace=wrap;html=1;" vertex="1" parent="1">
          <mxGeometry x="354" y="-20" width="120" height="60" as="geometry" />
        </mxCell>
        <mxCell id="SbqMLIWRrSxhHvVzDSS_-8" value="" style="edgeStyle=orthogonalEdgeStyle;rounded=0;orthogonalLoop=1;jettySize=auto;html=1;" edge="1" parent="1" source="SbqMLIWRrSxhHvVzDSS_-2" target="SbqMLIWRrSxhHvVzDSS_-5">
          <mxGeometry relative="1" as="geometry" />
        </mxCell>
        <mxCell id="SbqMLIWRrSxhHvVzDSS_-11" style="edgeStyle=orthogonalEdgeStyle;rounded=0;orthogonalLoop=1;jettySize=auto;html=1;entryX=0.5;entryY=0;entryDx=0;entryDy=0;" edge="1" parent="1" source="SbqMLIWRrSxhHvVzDSS_-2" target="SbqMLIWRrSxhHvVzDSS_-9">
          <mxGeometry relative="1" as="geometry" />
        </mxCell>
        <mxCell id="SbqMLIWRrSxhHvVzDSS_-2" value="Запись&amp;nbsp;&lt;br&gt;на прием" style="rounded=1;whiteSpace=wrap;html=1;" vertex="1" parent="1">
          <mxGeometry x="354" y="75" width="120" height="60" as="geometry" />
        </mxCell>
        <mxCell id="SbqMLIWRrSxhHvVzDSS_-64" style="edgeStyle=orthogonalEdgeStyle;rounded=0;orthogonalLoop=1;jettySize=auto;html=1;entryX=1;entryY=0.5;entryDx=0;entryDy=0;" edge="1" parent="1" source="SbqMLIWRrSxhHvVzDSS_-5" target="SbqMLIWRrSxhHvVzDSS_-45">
          <mxGeometry relative="1" as="geometry" />
        </mxCell>
        <mxCell id="SbqMLIWRrSxhHvVzDSS_-69" value="" style="edgeStyle=orthogonalEdgeStyle;rounded=0;orthogonalLoop=1;jettySize=auto;html=1;" edge="1" parent="1" source="SbqMLIWRrSxhHvVzDSS_-5" target="SbqMLIWRrSxhHvVzDSS_-67">
          <mxGeometry relative="1" as="geometry" />
        </mxCell>
        <mxCell id="SbqMLIWRrSxhHvVzDSS_-73" style="edgeStyle=orthogonalEdgeStyle;rounded=0;orthogonalLoop=1;jettySize=auto;html=1;entryX=0;entryY=0.5;entryDx=0;entryDy=0;" edge="1" parent="1" target="SbqMLIWRrSxhHvVzDSS_-68">
          <mxGeometry relative="1" as="geometry">
            <mxPoint x="590" y="135" as="sourcePoint" />
            <mxPoint x="630" y="240" as="targetPoint" />
            <Array as="points">
              <mxPoint x="590" y="136" />
              <mxPoint x="610" y="136" />
              <mxPoint x="610" y="210" />
            </Array>
          </mxGeometry>
        </mxCell>
        <mxCell id="SbqMLIWRrSxhHvVzDSS_-5" value="Регистратура" style="rounded=1;whiteSpace=wrap;html=1;" vertex="1" parent="1">
          <mxGeometry x="520" y="75" width="120" height="60" as="geometry" />
        </mxCell>
        <mxCell id="SbqMLIWRrSxhHvVzDSS_-36" style="edgeStyle=orthogonalEdgeStyle;rounded=0;orthogonalLoop=1;jettySize=auto;html=1;entryX=0;entryY=0.5;entryDx=0;entryDy=0;" edge="1" parent="1" source="SbqMLIWRrSxhHvVzDSS_-9" target="SbqMLIWRrSxhHvVzDSS_-25">
          <mxGeometry relative="1" as="geometry">
            <Array as="points">
              <mxPoint x="180" y="210" />
              <mxPoint x="180" y="660" />
            </Array>
          </mxGeometry>
        </mxCell>
        <mxCell id="SbqMLIWRrSxhHvVzDSS_-9" value="Прием" style="rounded=1;whiteSpace=wrap;html=1;" vertex="1" parent="1">
          <mxGeometry x="210" y="180" width="120" height="60" as="geometry" />
        </mxCell>
        <mxCell id="SbqMLIWRrSxhHvVzDSS_-49" value="" style="edgeStyle=orthogonalEdgeStyle;rounded=0;orthogonalLoop=1;jettySize=auto;html=1;" edge="1" parent="1" source="SbqMLIWRrSxhHvVzDSS_-13" target="SbqMLIWRrSxhHvVzDSS_-15">
          <mxGeometry relative="1" as="geometry" />
        </mxCell>
        <mxCell id="SbqMLIWRrSxhHvVzDSS_-51" value="" style="edgeStyle=orthogonalEdgeStyle;rounded=0;orthogonalLoop=1;jettySize=auto;html=1;" edge="1" parent="1" source="SbqMLIWRrSxhHvVzDSS_-13" target="SbqMLIWRrSxhHvVzDSS_-45">
          <mxGeometry relative="1" as="geometry">
            <Array as="points">
              <mxPoint x="340" y="310" />
              <mxPoint x="340" y="310" />
            </Array>
          </mxGeometry>
        </mxCell>
        <mxCell id="SbqMLIWRrSxhHvVzDSS_-13" value="Терапевт" style="rounded=1;whiteSpace=wrap;html=1;" vertex="1" parent="1">
          <mxGeometry x="210" y="270" width="120" height="60" as="geometry" />
        </mxCell>
        <mxCell id="SbqMLIWRrSxhHvVzDSS_-60" style="edgeStyle=orthogonalEdgeStyle;rounded=0;orthogonalLoop=1;jettySize=auto;html=1;entryX=0;entryY=0.5;entryDx=0;entryDy=0;" edge="1" parent="1" source="SbqMLIWRrSxhHvVzDSS_-15" target="SbqMLIWRrSxhHvVzDSS_-47">
          <mxGeometry relative="1" as="geometry" />
        </mxCell>
        <mxCell id="SbqMLIWRrSxhHvVzDSS_-15" value="Врач-&lt;br&gt;специалист" style="rounded=1;whiteSpace=wrap;html=1;" vertex="1" parent="1">
          <mxGeometry x="210" y="360" width="120" height="60" as="geometry" />
        </mxCell>
        <mxCell id="SbqMLIWRrSxhHvVzDSS_-21" value="Диспансеризация" style="rounded=1;whiteSpace=wrap;html=1;" vertex="1" parent="1">
          <mxGeometry x="210" y="450" width="120" height="60" as="geometry" />
        </mxCell>
        <mxCell id="SbqMLIWRrSxhHvVzDSS_-24" value="Старшая&lt;br&gt;медсестра" style="rounded=1;whiteSpace=wrap;html=1;" vertex="1" parent="1">
          <mxGeometry x="210" y="540" width="120" height="60" as="geometry" />
        </mxCell>
        <mxCell id="SbqMLIWRrSxhHvVzDSS_-25" value="Зам.гл.вр/&lt;br&gt;главный врач" style="rounded=1;whiteSpace=wrap;html=1;" vertex="1" parent="1">
          <mxGeometry x="210" y="630" width="120" height="60" as="geometry" />
        </mxCell>
        <mxCell id="SbqMLIWRrSxhHvVzDSS_-38" value="" style="endArrow=classic;html=1;rounded=0;entryX=0;entryY=0.5;entryDx=0;entryDy=0;" edge="1" parent="1" target="SbqMLIWRrSxhHvVzDSS_-13">
          <mxGeometry width="50" height="50" relative="1" as="geometry">
            <mxPoint x="180" y="300" as="sourcePoint" />
            <mxPoint x="470" y="480" as="targetPoint" />
          </mxGeometry>
        </mxCell>
        <mxCell id="SbqMLIWRrSxhHvVzDSS_-39" value="" style="endArrow=classic;html=1;rounded=0;entryX=0;entryY=0.5;entryDx=0;entryDy=0;" edge="1" parent="1" target="SbqMLIWRrSxhHvVzDSS_-15">
          <mxGeometry width="50" height="50" relative="1" as="geometry">
            <mxPoint x="180" y="390" as="sourcePoint" />
            <mxPoint x="470" y="480" as="targetPoint" />
          </mxGeometry>
        </mxCell>
        <mxCell id="SbqMLIWRrSxhHvVzDSS_-40" value="" style="endArrow=classic;html=1;rounded=0;" edge="1" parent="1">
          <mxGeometry width="50" height="50" relative="1" as="geometry">
            <mxPoint x="180" y="480" as="sourcePoint" />
            <mxPoint x="210" y="480" as="targetPoint" />
          </mxGeometry>
        </mxCell>
        <mxCell id="SbqMLIWRrSxhHvVzDSS_-42" value="" style="endArrow=classic;html=1;rounded=0;entryX=0;entryY=0.5;entryDx=0;entryDy=0;" edge="1" parent="1" target="SbqMLIWRrSxhHvVzDSS_-24">
          <mxGeometry width="50" height="50" relative="1" as="geometry">
            <mxPoint x="180" y="570" as="sourcePoint" />
            <mxPoint x="200" y="570" as="targetPoint" />
          </mxGeometry>
        </mxCell>
        <mxCell id="SbqMLIWRrSxhHvVzDSS_-44" style="edgeStyle=orthogonalEdgeStyle;rounded=0;orthogonalLoop=1;jettySize=auto;html=1;exitX=0.5;exitY=1;exitDx=0;exitDy=0;" edge="1" parent="1" source="SbqMLIWRrSxhHvVzDSS_-1" target="SbqMLIWRrSxhHvVzDSS_-1">
          <mxGeometry relative="1" as="geometry" />
        </mxCell>
        <mxCell id="SbqMLIWRrSxhHvVzDSS_-45" value="Анализы/&lt;br&gt;снимки" style="rounded=1;whiteSpace=wrap;html=1;" vertex="1" parent="1">
          <mxGeometry x="400" y="360" width="120" height="60" as="geometry" />
        </mxCell>
        <mxCell id="SbqMLIWRrSxhHvVzDSS_-46" value="Процедуры" style="rounded=1;whiteSpace=wrap;html=1;" vertex="1" parent="1">
          <mxGeometry x="400" y="450" width="120" height="60" as="geometry" />
        </mxCell>
        <mxCell id="SbqMLIWRrSxhHvVzDSS_-47" value="Дневной&lt;br&gt;стационар" style="rounded=1;whiteSpace=wrap;html=1;" vertex="1" parent="1">
          <mxGeometry x="400" y="540" width="120" height="60" as="geometry" />
        </mxCell>
        <mxCell id="SbqMLIWRrSxhHvVzDSS_-62" value="" style="endArrow=classic;html=1;rounded=0;entryX=0;entryY=0.5;entryDx=0;entryDy=0;" edge="1" parent="1" target="SbqMLIWRrSxhHvVzDSS_-45">
          <mxGeometry width="50" height="50" relative="1" as="geometry">
            <mxPoint x="360" y="390" as="sourcePoint" />
            <mxPoint x="450" y="340" as="targetPoint" />
          </mxGeometry>
        </mxCell>
        <mxCell id="SbqMLIWRrSxhHvVzDSS_-63" value="" style="endArrow=classic;html=1;rounded=0;entryX=0;entryY=0.5;entryDx=0;entryDy=0;" edge="1" parent="1" target="SbqMLIWRrSxhHvVzDSS_-46">
          <mxGeometry width="50" height="50" relative="1" as="geometry">
            <mxPoint x="370" y="480" as="sourcePoint" />
            <mxPoint x="450" y="340" as="targetPoint" />
            <Array as="points">
              <mxPoint x="370" y="480" />
            </Array>
          </mxGeometry>
        </mxCell>
        <mxCell id="SbqMLIWRrSxhHvVzDSS_-66" value="" style="endArrow=classic;html=1;rounded=0;entryX=1;entryY=0.5;entryDx=0;entryDy=0;" edge="1" parent="1" target="SbqMLIWRrSxhHvVzDSS_-9">
          <mxGeometry width="50" height="50" relative="1" as="geometry">
            <mxPoint x="580" y="210" as="sourcePoint" />
            <mxPoint x="450" y="340" as="targetPoint" />
          </mxGeometry>
        </mxCell>
        <mxCell id="SbqMLIWRrSxhHvVzDSS_-67" value="Выдача&lt;br&gt;справок" style="rounded=1;whiteSpace=wrap;html=1;" vertex="1" parent="1">
          <mxGeometry x="680" y="75" width="120" height="60" as="geometry" />
        </mxCell>
        <mxCell id="SbqMLIWRrSxhHvVzDSS_-68" value="Консультация" style="rounded=1;whiteSpace=wrap;html=1;" vertex="1" parent="1">
          <mxGeometry x="680" y="180" width="120" height="60" as="geometry" />
        </mxCell>
        <mxCell id="SbqMLIWRrSxhHvVzDSS_-82" style="edgeStyle=orthogonalEdgeStyle;rounded=0;orthogonalLoop=1;jettySize=auto;html=1;entryX=0.433;entryY=-0.05;entryDx=0;entryDy=0;entryPerimeter=0;" edge="1" parent="1" source="SbqMLIWRrSxhHvVzDSS_-74" target="SbqMLIWRrSxhHvVzDSS_-80">
          <mxGeometry relative="1" as="geometry" />
        </mxCell>
        <mxCell id="SbqMLIWRrSxhHvVzDSS_-83" style="edgeStyle=orthogonalEdgeStyle;rounded=0;orthogonalLoop=1;jettySize=auto;html=1;entryX=0.5;entryY=0;entryDx=0;entryDy=0;" edge="1" parent="1" source="SbqMLIWRrSxhHvVzDSS_-74" target="SbqMLIWRrSxhHvVzDSS_-75">
          <mxGeometry relative="1" as="geometry" />
        </mxCell>
        <mxCell id="SbqMLIWRrSxhHvVzDSS_-74" value="Врач" style="ellipse;whiteSpace=wrap;html=1;" vertex="1" parent="1">
          <mxGeometry x="354" y="810" width="120" height="70" as="geometry" />
        </mxCell>
        <mxCell id="SbqMLIWRrSxhHvVzDSS_-84" style="edgeStyle=orthogonalEdgeStyle;rounded=0;orthogonalLoop=1;jettySize=auto;html=1;entryX=0.5;entryY=0;entryDx=0;entryDy=0;" edge="1" parent="1" source="SbqMLIWRrSxhHvVzDSS_-75" target="SbqMLIWRrSxhHvVzDSS_-78">
          <mxGeometry relative="1" as="geometry">
            <Array as="points">
              <mxPoint x="500" y="920" />
            </Array>
          </mxGeometry>
        </mxCell>
        <mxCell id="SbqMLIWRrSxhHvVzDSS_-85" style="edgeStyle=orthogonalEdgeStyle;rounded=0;orthogonalLoop=1;jettySize=auto;html=1;entryX=0.5;entryY=0;entryDx=0;entryDy=0;" edge="1" parent="1" source="SbqMLIWRrSxhHvVzDSS_-75" target="SbqMLIWRrSxhHvVzDSS_-79">
          <mxGeometry relative="1" as="geometry">
            <Array as="points">
              <mxPoint x="740" y="920" />
            </Array>
          </mxGeometry>
        </mxCell>
        <mxCell id="SbqMLIWRrSxhHvVzDSS_-75" value="Прием" style="rounded=1;whiteSpace=wrap;html=1;" vertex="1" parent="1">
          <mxGeometry x="560" y="890" width="120" height="60" as="geometry" />
        </mxCell>
        <mxCell id="SbqMLIWRrSxhHvVzDSS_-87" value="" style="edgeStyle=orthogonalEdgeStyle;rounded=0;orthogonalLoop=1;jettySize=auto;html=1;" edge="1" parent="1" source="SbqMLIWRrSxhHvVzDSS_-78" target="SbqMLIWRrSxhHvVzDSS_-86">
          <mxGeometry relative="1" as="geometry" />
        </mxCell>
        <mxCell id="SbqMLIWRrSxhHvVzDSS_-78" value="Терапевт" style="rounded=1;whiteSpace=wrap;html=1;" vertex="1" parent="1">
          <mxGeometry x="440" y="1000" width="120" height="60" as="geometry" />
        </mxCell>
        <mxCell id="SbqMLIWRrSxhHvVzDSS_-79" value="Врач-&lt;br&gt;специалист" style="rounded=1;whiteSpace=wrap;html=1;" vertex="1" parent="1">
          <mxGeometry x="680" y="1000" width="120" height="60" as="geometry" />
        </mxCell>
        <mxCell id="SbqMLIWRrSxhHvVzDSS_-80" value="Проф.&lt;br&gt;деятельность" style="rounded=1;whiteSpace=wrap;html=1;" vertex="1" parent="1">
          <mxGeometry x="150" y="890" width="120" height="60" as="geometry" />
        </mxCell>
        <mxCell id="SbqMLIWRrSxhHvVzDSS_-86" value="Вызов на дом" style="rounded=1;whiteSpace=wrap;html=1;" vertex="1" parent="1">
          <mxGeometry x="440" y="1100" width="120" height="60" as="geometry" />
        </mxCell>
      </root>
    </mxGraphModel>
  </diagram>
</mxfile>
